<?xml version="1.0" standalone="no"?><!DOCTYPE svg PUBLIC "-//W3C//DTD SVG 1.1//EN"
        "http://www.w3.org/Graphics/SVG/1.1/DTD/svg11.dtd">
<svg t="1734341047063" class="icon" viewBox="0 0 1024 1024" version="1.1" xmlns="http://www.w3.org/2000/svg" p-id="7110"
     width="200" height="200">
    <path d="M564.39 827.74c-85.01 0-169.26-23.31-175.08-24.95-75.5-20.58-161.98-12.66-206.83-6.1a52.463 52.463 0 0 1-41.95-12.23 52.423 52.423 0 0 1-18.15-39.68V444.39c0-11.05 8.95-20 20-20s20 8.95 20 20v300.38c0 4.96 2.7 8.03 4.31 9.42 1.62 1.4 5.06 3.64 10 2.91 47.95-7.01 140.71-15.41 223.24 7.12 0.06 0.02 0.12 0.03 0.18 0.05 1.6 0.45 161.6 44.91 251.76 10.44 4.68-1.79 7.83-6.44 7.83-11.58V474.99c0-11.05 8.95-20 20-20s20 8.95 20 20v288.14c0 21.6-13.48 41.27-33.55 48.94-30.22 11.55-66.06 15.67-101.77 15.67z"
          fill="#333333" p-id="7111"></path>
    <path d="M774.24 713c-33.72 0-63.85-28.4-84.83-79.98-18.66-45.87-28.94-106.43-28.94-170.52s10.28-124.65 28.94-170.52c20.98-51.57 51.1-79.98 84.83-79.98s63.85 28.4 84.83 79.98c18.66 45.87 28.94 106.43 28.94 170.52s-10.28 124.65-28.94 170.52c-20.98 51.57-51.1 79.98-84.83 79.98z m0-461c-15.66 0-33.96 21.09-47.77 55.05-16.76 41.2-25.99 96.41-25.99 155.45s9.23 114.25 25.99 155.45c13.81 33.96 32.12 55.05 47.77 55.05s33.96-21.09 47.77-55.05C838.77 576.75 848 521.54 848 462.5s-9.23-114.25-25.99-155.45C808.2 273.09 789.89 252 774.24 252z"
          fill="#333333" p-id="7112"></path>
    <path d="M141.84 461.64c-11.05 0-20-8.95-20-20 0-58.53 9.44-113.86 26.59-155.81 19.46-47.61 47.56-73.83 79.11-73.83h538.63c11.05 0 20 8.95 20 20s-8.95 20-20 20H227.53c-13.61 0-29.73 18.76-42.08 48.97-15.23 37.25-23.61 87.21-23.61 140.67 0 11.05-8.95 20-20 20z"
          fill="#333333" p-id="7113"></path>
    <path d="M566.02 351.88h-309.9c-11.05 0-20-8.95-20-20s8.95-20 20-20h309.89c11.05 0 20 8.95 20 20s-8.95 20-20 20z"
          fill="#333333" p-id="7114"></path>
</svg>