<?xml version="1.0" standalone="no"?><!DOCTYPE svg PUBLIC "-//W3C//DTD SVG 1.1//EN"
        "http://www.w3.org/Graphics/SVG/1.1/DTD/svg11.dtd">
<svg t="1734341063777" class="icon" viewBox="0 0 1024 1024" version="1.1" xmlns="http://www.w3.org/2000/svg" p-id="8037"
     width="200" height="200">
    <path d="M594.17 893.69h-42.98c-19.77 0-38.38-7.53-52.55-21.25l-35.1-27.59c-8.68-6.83-10.19-19.4-3.36-28.08s19.4-10.19 28.08-3.36l35.96 28.27c0.63 0.49 1.22 1.02 1.78 1.58 6.73 6.73 15.67 10.43 25.18 10.43h42.98c1.65 0 3-1.35 3-3v-44.43c0-22.93 18.66-41.58 41.58-41.58h44.43c1.65 0 3-1.35 3-3v-44.43c0-22.93 18.65-41.58 41.58-41.58h44.43c1.65 0 3-1.35 3-3v-44.43c0-22.93 18.65-41.58 41.58-41.58h44.43c1.65 0 3-1.35 3-3v-42.98c0-9.51-3.7-18.45-10.43-25.18-0.56-0.56-1.09-1.16-1.58-1.78l-28.27-35.96c-6.83-8.68-5.32-21.26 3.36-28.08 8.68-6.83 21.26-5.32 28.08 3.36l27.59 35.1c13.71 14.17 21.25 32.78 21.25 52.55v42.98c0 23.71-19.29 43-43 43h-44.43c-0.87 0-1.58 0.71-1.58 1.58v44.43c0 23.71-19.29 43-43 43h-44.43c-0.87 0-1.58 0.71-1.58 1.58v44.43c0 23.71-19.29 43-43 43h-44.43c-0.87 0-1.58 0.71-1.58 1.58v44.43c0 23.71-19.29 43-43 43zM180.1 553.31c-5.93 0-11.79-2.62-15.74-7.64l-27.59-35.1c-13.71-14.17-21.25-32.78-21.25-52.55v-42.98c0-23.71 19.29-43 43-43h44.43c0.87 0 1.58-0.71 1.58-1.58v-44.43c0-23.71 19.29-43 43-43h44.43c0.87 0 1.58-0.71 1.58-1.58v-44.43c0-23.71 19.29-43 43-43h44.43c0.87 0 1.58-0.71 1.58-1.58v-44.43c0-23.71 19.29-43 43-43h42.98c19.77 0 38.38 7.53 52.55 21.25l35.1 27.59c8.68 6.83 10.19 19.4 3.36 28.08s-19.4 10.19-28.08 3.36l-35.96-28.27c-0.62-0.49-1.22-1.02-1.78-1.58-6.73-6.73-15.67-10.43-25.18-10.43h-42.98c-1.65 0-3 1.35-3 3v44.43c0 22.93-18.66 41.58-41.58 41.58h-44.43c-1.65 0-3 1.35-3 3v44.43c0 22.93-18.65 41.58-41.58 41.58h-44.43c-1.65 0-3 1.35-3 3v44.43c0 22.93-18.65 41.58-41.58 41.58h-44.43c-1.65 0-3 1.35-3 3v42.98c0 9.51 3.7 18.45 10.43 25.18 0.56 0.56 1.09 1.16 1.58 1.78l28.27 35.96c6.83 8.68 5.32 21.26-3.36 28.08a19.911 19.911 0 0 1-12.35 4.28z"
          fill="#333333" p-id="8038"></path>
    <path d="M488.02 858.44c-4.56 0-9.13-1.55-12.87-4.69-113.47-95.42-223.88-205.83-319.3-319.3-6.68-7.94-6.17-19.68 1.16-27.01l360.92-360.92c7.34-7.34 19.07-7.84 27.01-1.17 113.47 95.42 223.88 205.83 319.3 319.3 6.68 7.94 6.17 19.68-1.16 27.01L502.16 852.58a19.959 19.959 0 0 1-14.15 5.86zM198.32 522.7c87.22 102.15 186.44 201.36 288.58 288.58l334.87-334.87c-87.22-102.15-186.44-201.36-288.58-288.58L198.32 522.7z"
          fill="#333333" p-id="8039"></path>
    <path d="M511.34 728.58c-5.12 0-10.24-1.95-14.14-5.86-7.81-7.81-7.81-20.47 0-28.28L698.94 492.7c7.81-7.81 20.47-7.81 28.28 0s7.81 20.47 0 28.28L525.48 722.72a19.92 19.92 0 0 1-14.14 5.86z"
          fill="#333333" p-id="8040"></path>
</svg>