<?xml version="1.0" standalone="no"?><!DOCTYPE svg PUBLIC "-//W3C//DTD SVG 1.1//EN"
        "http://www.w3.org/Graphics/SVG/1.1/DTD/svg11.dtd">
<svg t="1734341057658" class="icon" viewBox="0 0 1024 1024" version="1.1" xmlns="http://www.w3.org/2000/svg" p-id="7575"
     width="200" height="200">
    <path d="M705.79 579.01c-9.01 0-18.04-0.77-26.86-2.28-10.89-1.87-18.2-12.21-16.33-23.1 1.87-10.89 12.21-18.2 23.1-16.32 6.58 1.13 13.34 1.7 20.08 1.7 64.9 0 117.7-52.8 117.7-117.7s-52.8-117.7-117.7-117.7c-6.62 0-13.3 0.56-19.84 1.67-9.97 1.69-19.64-4.33-22.52-14.02-9.34-31.44-28.96-59.72-55.25-79.64-27.15-20.57-59.57-31.45-93.74-31.45s-66.63 10.89-93.79 31.49c-26.31 19.95-45.92 48.26-55.24 79.72-2.89 9.75-12.62 15.78-22.64 14.02-6.74-1.18-13.64-1.78-20.52-1.78-64.9 0-117.7 52.8-117.7 117.7s52.8 117.7 117.7 117.7c7.22 0 14.45-0.66 21.49-1.95 10.86-2 21.29 5.18 23.29 16.04s-5.18 21.29-16.04 23.29c-9.42 1.74-19.09 2.62-28.74 2.62-86.96 0-157.7-70.75-157.7-157.7s70.75-157.7 157.7-157.7c3.45 0 6.91 0.11 10.35 0.34 13.1-33.09 35.37-62.55 63.88-84.17 34.18-25.92 74.97-39.61 117.96-39.61s83.74 13.68 117.9 39.57c28.52 21.61 50.8 51.07 63.92 84.17 3.18-0.19 6.36-0.29 9.54-0.29 86.96 0 157.7 70.75 157.7 157.7s-70.75 157.7-157.7 157.7z"
          fill="#333333" p-id="7576"></path>
    <path d="M420.05 354.45c-6.41 0-12.7-3.07-16.57-8.78-14.48-21.35-37.27-36.15-62.53-40.58-10.88-1.91-18.15-12.28-16.24-23.16 1.91-10.88 12.28-18.15 23.16-16.24 35.85 6.3 68.19 27.26 88.71 57.53 6.2 9.14 3.82 21.58-5.33 27.78a19.92 19.92 0 0 1-11.21 3.45zM688.4 346.29c-11.05 0-20-8.95-20-20 0-12.34-1.77-24.55-5.26-36.3-3.14-10.59 2.89-21.72 13.48-24.87 10.59-3.15 21.72 2.89 24.87 13.48 4.59 15.45 6.91 31.49 6.91 47.69 0 11.05-8.95 20-20 20zM514.51 906.24c-74.15 0-136.82-62.88-137.24-137.48-0.52-7.94-2.2-55.79 25.56-132.36 0.13-0.36 0.27-0.71 0.42-1.06 0.05-0.12 8.38-20.38 8.53-48.52 0.19-36.59-13.01-69.16-39.23-96.79-7.6-8.01-7.27-20.67 0.74-28.27 8.01-7.6 20.67-7.27 28.27 0.74 42.4 44.69 50.7 93.43 50.19 126.44-0.51 32.9-9.69 57.11-11.46 61.48-20.99 58.05-24.3 101.03-23.11 115.75 0.07 0.67 0.08 1.14 0.08 1.83 0 25.18 10.56 50.3 28.97 68.93 18.68 18.9 42.93 29.3 68.27 29.3 11.05 0 20 8.95 20 20s-8.95 20-20 20z"
          fill="#333333" p-id="7577"></path>
    <path d="M514.49 906.24c-11.05 0-20-8.95-20-20s8.95-20 20-20c25.35 0 49.59-10.41 68.27-29.3 18.41-18.63 28.97-43.75 28.97-68.93 0-0.68 0.01-1.15 0.08-1.83 1.19-14.72-2.12-57.71-23.11-115.75-1.77-4.37-10.96-28.58-11.46-61.48-0.51-33.01 7.79-81.75 50.19-126.44 7.6-8.01 20.26-8.35 28.27-0.74 8.01 7.6 8.35 20.26 0.74 28.27-63.31 66.74-31.04 144.53-30.7 145.31 0.15 0.35 0.29 0.7 0.42 1.06 27.76 76.57 26.08 124.42 25.56 132.36-0.42 74.6-63.1 137.48-137.24 137.48zM445.42 890.25c-63.26 0-111.99-21.29-137.21-59.96-22.34-34.26-23.99-79.24-4.53-123.43 0.08-0.19 0.17-0.38 0.26-0.57 17.05-35.65 16.54-62.41 16.49-63.95-0.01-0.17 0-0.16-0.02-0.38-1.51-42.17-27.64-67.96-27.9-68.22l0.1 0.09 27.44-29.1c1.56 1.47 38.2 36.67 40.34 95.73 0.18 4.2 0.9 38.48-20.22 82.8-13.79 31.49-13.23 62.52 1.55 85.18 17.59 26.96 54.42 41.81 103.71 41.81 11.05 0 20 8.95 20 20s-8.95 20-20 20z"
          fill="#333333" p-id="7578"></path>
    <path d="M583.53 890.25c-11.05 0-20-8.95-20-20s8.95-20 20-20c49.29 0 86.12-14.85 103.71-41.81 14.78-22.66 15.34-53.69 1.55-85.18-21.12-44.32-20.4-78.6-20.22-82.8 2.14-59.05 38.78-94.26 40.34-95.73l27.44 29.1 0.1-0.09c-0.26 0.26-26.4 26.05-27.9 68.22 0 0.22 0 0.22-0.02 0.38-0.05 1.54-0.56 28.3 16.49 63.95 0.09 0.19 0.18 0.38 0.26 0.57 19.46 44.18 17.81 89.17-4.53 123.43-25.22 38.67-73.95 59.96-137.21 59.96zM514.46 811.82c-11.05 0-20-8.95-20-20V476.4c0-11.05 8.95-20 20-20s20 8.95 20 20v315.42c0 11.05-8.95 20-20 20z"
          fill="#333333" p-id="7579"></path>
</svg>