<?xml version="1.0" standalone="no"?><!DOCTYPE svg PUBLIC "-//W3C//DTD SVG 1.1//EN" "http://www.w3.org/Graphics/SVG/1.1/DTD/svg11.dtd"><svg t="1750347441583" class="icon" viewBox="0 0 1587 1024" version="1.1" xmlns="http://www.w3.org/2000/svg" p-id="17191" xmlns:xlink="http://www.w3.org/1999/xlink" width="309.9609375" height="200"><path d="M6.647 1017.678h1574.004V6.178H6.647v1011.5z m1577.327 3.215zM0 1024V0h1587.225v1024z" fill="#DEDEDE" p-id="17192"></path><path d="M1583.902 1020.821H3.324V3.107h1580.578V1020.82z" fill="#003894" p-id="17193"></path><path d="M793.595 512H3.324V3.107h790.27V512z" fill="#003894" p-id="17194"></path><path d="M793.595 181.24H477.5V3.106H319.454v178.132H3.324v152.665h316.13V512H477.5V333.904h316.094V181.239z" fill="#FFFFFF" p-id="17195"></path><path d="M793.595 453.55L94.033 3.107H3.323v58.992L702.272 512h91.324v-58.45z" fill="#FFFFFF" p-id="17196"></path><path d="M3.324 453.55L702.993 3.107h90.602v58.992L94.755 512H3.325v-58.45z" fill="#FFFFFF" p-id="17197"></path><path d="M793.595 213.03h-349.04V3.106H352.4v209.922H3.324v89.085H352.4V512h92.155V302.114h349.04v-89.085z" fill="#E60012" p-id="17198"></path><path d="M793.595 510.555v-40.243L581.288 333.904h-62.605l274.912 176.651z m0-507.448H731.17L477.5 166.067v15.172h38.979L793.595 3.215v-0.108z m-515.18 330.797L3.325 510.59V512h60.364l255.766-164.297v-13.8h-41.038zM3.325 3.468v40.207L217.473 181.24h62.604L3.324 3.468z" fill="#E60012" p-id="17199"></path><path d="M398.495 649.456l24.096 72.214 73.478-26.841-43.459 63.146 67.482 38.799-78.138 6.502 10.656 75.14-54.115-54.946-54.079 54.946 10.657-75.14-78.139-6.502 67.482-38.799-43.458-63.146 73.55 26.84 23.987-72.213z m790.235 144.897l11.885 35.367 35.872-13.186-21.241 30.887 32.946 18.93-38.184 3.215 5.238 36.739-26.516-26.877-26.407 26.877 5.238-36.74-38.148-3.215 32.91-18.93-21.17-30.886 35.909 13.186 11.668-35.367zM991.307 391.595l11.813 35.294 35.872-13.113-21.278 30.887 33.127 18.893-38.329 3.215 5.274 36.776-26.48-26.877-26.443 26.877 5.383-36.776-38.365-3.215 33.055-18.893-21.17-30.887 35.8 13.113 11.74-35.294z m197.423-274.947l11.885 35.258 35.872-13.114-21.241 30.851 32.946 19.002-38.184 3.215 5.238 36.74-26.516-26.914-26.407 26.913 5.238-36.739-38.148-3.215 32.91-19.002-21.17-30.85 35.909 13.113 11.668-35.258z m175.604 207.755l11.74 35.33 35.945-13.15-21.278 30.96 33.019 18.857-38.22 3.251 5.201 36.703-26.407-26.913-26.444 26.913 5.275-36.703-38.22-3.251 33.018-18.857-21.35-30.96 35.98 13.15 11.74-35.33z m-96.093 199.446l9.032 21.386 23.95 1.698-18.351 14.92 5.78 22.47-20.41-12.211-20.303 12.21 5.78-22.47-18.424-14.92 23.915-1.697 9.031-21.386z" fill="#FFFFFF" p-id="17200"></path></svg>